<?xml version="1.0" encoding="UTF-8"?>
<svg width="25px" height="45px" viewBox="0 0 25 45" version="1.1" xmlns="http://www.w3.org/2000/svg" xmlns:xlink="http://www.w3.org/1999/xlink">
    <!-- Generator: Sketch 60 (88103) - https://sketch.com -->
    <title>Path</title>
    <desc>Created with Sketch.</desc>
    <g id="Page-1" stroke="none" stroke-width="1" fill="none" fill-rule="evenodd" opacity="0.5">
        <g id="Объявление-кредитора" transform="translate(-692.000000, -2175.000000)" fill="#FFFFFF" fill-rule="nonzero">
            <g id="Group-24" transform="translate(319.000000, 1817.000000)">
                <g id="Group-25" transform="translate(0.000000, 125.000000)">
                    <g id="Group-36" transform="translate(352.000000, 0.000000)">
                        <g id="Group-42">
                            <g id="Bitmap" transform="translate(5.000000, 5.000000)">
                                <g id="Group-45">
                                    <g id="down-arrow-(1)-2" transform="translate(28.500000, 250.500000) scale(-1, 1) translate(-28.500000, -250.500000) translate(16.000000, 228.000000)">
                                        <g id="down-arrow-(1)">
                                            <path d="M33.9077924,11.0682293 C33.1922277,10.3490063 32.0320011,10.3490063 31.3164364,11.0682293 L12.4561404,30.0248624 L-6.4041557,11.0682293 C-7.11972039,10.3490063 -8.279947,10.3490063 -8.9955117,11.0682293 C-9.71107639,11.7874523 -9.71107639,12.9536106 -8.9955117,13.6728336 L11.1604624,33.9318552 C11.876027,34.6510782 13.0362537,34.6510782 13.7518183,33.9318552 L33.9077924,13.6728336 C34.6233571,12.9535243 34.6233571,11.7874523 33.9077924,11.0682293 Z" id="Path" transform="translate(12.456140, 22.500042) rotate(-90.000000) translate(-12.456140, -22.500042) "></path>
                                        </g>
                                    </g>
                                </g>
                            </g>
                        </g>
                    </g>
                </g>
            </g>
        </g>
    </g>
</svg>