<?xml version="1.0" encoding="UTF-8"?>
<svg width="200px" height="33px" viewBox="0 0 200 33" version="1.1" xmlns="http://www.w3.org/2000/svg" xmlns:xlink="http://www.w3.org/1999/xlink">
    <!-- Generator: Sketch 60 (88103) - https://sketch.com -->
    <title>Group 29</title>
    <desc>Created with Sketch.</desc>
    <g id="Page-1" stroke="none" stroke-width="1" fill="none" fill-rule="evenodd">
        <g id="Объявление-кредитора" transform="translate(-320.000000, -39.000000)" fill="#D8232A">
            <g id="Первый-экран" transform="translate(-2.000000, -1.000000)">
                <g id="Group-29" transform="translate(322.000000, 40.000000)">
                    <g id="Group">
                        <path d="M16.1824324,10.5227027 C16.1824324,8.1352027 14.4138514,6.94195946 10.8763514,6.94195946 L7.56047297,6.94195946 L7.56047297,14.3257432 L10.7442568,14.3257432 C14.3699324,14.3257432 16.1824324,13.0591892 16.1824324,10.5227027 M23.7435811,10.4781081 C23.7435811,12.7774324 23.1462838,14.695 21.9523649,16.2270946 C20.7584459,17.7591892 19.2699324,18.8291216 17.4864865,19.4321622 C15.7027027,20.0365541 13.6469595,20.3385811 11.3185811,20.3385811 L7.56047297,20.3385811 L7.56047297,32.1443243 L0,32.1443243 L0,0.839256757 L11.4959459,0.839256757 C15.2094595,0.839256757 18.1790541,1.59905405 20.4054054,3.11662162 C22.6304054,4.63587838 23.7435811,7.08925676 23.7435811,10.4781081" id="Fill-585"></path>
                        <path d="M44.7452365,10.4347635 C44.7452365,8.10638514 43.0644932,6.94219595 39.7046959,6.94219595 L35.6807095,6.94219595 L35.6807095,14.2378041 L39.2624662,14.2378041 C42.9171959,14.2378041 44.7452365,12.9695608 44.7452365,10.4347635 L44.7452365,10.4347635 Z M53.8976014,32.144223 L45.0546959,32.144223 L38.2901689,19.7198986 L35.7249662,19.7198986 L35.7249662,32.144223 L28.2972635,32.144223 L28.2972635,0.839493243 L40.2354392,0.839493243 C41.8266554,0.839493243 43.3003041,1.00266892 44.6563851,1.32564189 C46.0117905,1.65030405 47.2800338,2.16685811 48.4594257,2.87361486 C49.6381419,3.58037162 50.5590878,4.56888514 51.2229392,5.83543919 C51.885777,7.10368243 52.2175338,8.59253378 52.2175338,10.3019932 C52.2175338,12.3648311 51.6428716,14.13375 50.4928716,15.6080743 C49.3438851,17.0827365 47.7516554,18.1283446 45.7175338,18.7472635 L53.8976014,32.144223 Z" id="Fill-587"></path>
                        <path d="M82.1508784,16.3597973 C82.1508784,13.5885135 81.3106757,11.3047297 79.6306081,9.50540541 C77.9505405,7.70810811 75.7981757,6.80912162 73.1755405,6.80912162 C70.5512162,6.80912162 68.4062838,7.70810811 66.7417568,9.50540541 C65.0758784,11.3047297 64.2437838,13.5885135 64.2437838,16.3597973 C64.2437838,19.1888514 65.0758784,21.5172297 66.7417568,23.3452703 C68.4062838,25.172973 70.5512162,26.0864865 73.1755405,26.0864865 C75.7981757,26.0864865 77.9505405,25.172973 79.6306081,23.3452703 C81.3106757,21.5172297 82.1508784,19.1888514 82.1508784,16.3597973 M90.2420946,16.3597973 C90.2420946,21.2820946 88.635,25.2834459 85.4231757,28.3635135 C82.2093243,31.4435811 78.1272297,32.9837838 73.1755405,32.9837838 C68.2522297,32.9837838 64.1846622,31.4435811 60.9718243,28.3635135 C57.7589865,25.2834459 56.1525676,21.2820946 56.1525676,16.3597973 C56.1525676,11.4070946 57.7508784,7.44256757 60.949527,4.46486486 C64.1478378,1.48851351 68.2231757,0 73.1755405,0 C78.1559459,0 82.2461486,1.48851351 85.4444595,4.46486486 C88.6431081,7.44256757 90.2420946,11.4070946 90.2420946,16.3597973" id="Fill-589"></path>
                        <path d="M127.648649,16.4030068 C127.648649,14.7239527 127.367905,13.2715878 126.808446,12.048277 C126.247973,10.8249662 125.474324,9.87496622 124.487162,9.19692568 C123.498649,8.51888514 122.423311,8.03273649 121.258784,7.73679054 C120.094932,7.44253378 118.82027,7.29557432 117.434459,7.29557432 L113.676351,7.29557432 L113.676351,25.6003041 L117.25777,25.6003041 C120.293243,25.6003041 122.784797,24.8786824 124.730068,23.4330743 C126.675676,21.9891554 127.648649,19.64625 127.648649,16.4030068 M135.518243,16.4030068 C135.518243,19.0560473 135.01723,21.4148311 134.015203,23.4780068 C133.013176,25.5408446 131.664189,27.1915203 129.969932,28.4307095 C128.273986,29.6685473 126.410135,30.5959122 124.376689,31.2148311 C122.342568,31.83375 120.205068,32.144223 117.965203,32.144223 L106.292905,32.144223 L106.292905,0.839493243 L117.611149,0.839493243 C119.468581,0.839493243 121.229392,0.994560811 122.894932,1.30503378 C124.559797,1.61347973 126.174324,2.15233108 127.736486,2.91820946 C129.298986,3.68442568 130.646959,4.64219595 131.78277,5.79219595 C132.916554,6.94219595 133.823311,8.42293919 134.501351,10.2347635 C135.179392,12.048277 135.518243,14.1050338 135.518243,16.4030068" id="Fill-591"></path>
                        <polygon id="Fill-593" points="162.35652 32.1441554 140.514291 32.1441554 140.514291 0.839425676 161.560912 0.839425676 161.560912 7.25057432 147.809223 7.25057432 147.809223 13.1309797 160.808209 13.1309797 160.808209 19.18875 147.809223 19.18875 147.809223 25.6880743 162.35652 25.6880743"></polygon>
                        <path d="M191.892432,16.3597973 C191.892432,13.5885135 191.051892,11.3047297 189.372162,9.50540541 C187.692095,7.70810811 185.539392,6.80912162 182.916757,6.80912162 C180.292432,6.80912162 178.147838,7.70810811 176.483311,9.50540541 C174.817432,11.3047297 173.985338,13.5885135 173.985338,16.3597973 C173.985338,19.1888514 174.817432,21.5172297 176.483311,23.3452703 C178.147838,25.172973 180.292432,26.0864865 182.916757,26.0864865 C185.539392,26.0864865 187.692095,25.172973 189.372162,23.3452703 C191.051892,21.5172297 191.892432,19.1888514 191.892432,16.3597973 M199.983649,16.3597973 C199.983649,21.2820946 198.376216,25.2834459 195.164392,28.3635135 C191.950878,31.4435811 187.868784,32.9837838 182.916757,32.9837838 C177.993446,32.9837838 173.925878,31.4435811 170.713378,28.3635135 C167.500203,25.2834459 165.893784,21.2820946 165.893784,16.3597973 C165.893784,11.4070946 167.492432,7.44256757 170.690743,4.46486486 C173.889054,1.48851351 177.96473,0 182.916757,0 C187.8975,0 191.987365,1.48851351 195.186014,4.46486486 C198.384324,7.44256757 199.983649,11.4070946 199.983649,16.3597973" id="Fill-595"></path>
                    </g>
                </g>
            </g>
        </g>
    </g>
</svg>