<?xml version="1.0" encoding="UTF-8"?>
<svg width="84px" height="102px" viewBox="0 0 84 102" version="1.1" xmlns="http://www.w3.org/2000/svg" xmlns:xlink="http://www.w3.org/1999/xlink">
    <!-- Generator: Sketch 60 (88103) - https://sketch.com -->
    <title>documents</title>
    <desc>Created with Sketch.</desc>
    <g id="Page-1" stroke="none" stroke-width="1" fill="none" fill-rule="evenodd">
        <g id="Объявление-кредитора" transform="translate(-320.000000, -301.000000)" fill-rule="nonzero">
            <g id="Group-5" transform="translate(320.000000, 301.000000)">
                <g id="Group-3">
                    <g id="documents-2">
                        <g id="documents">
                            <path d="M64.1579139,0 C64.577512,0 64.9802297,0.17647619 65.2784498,0.476809524 L65.2784498,0.476809524 L83.4730909,18.8473333 C83.7680957,19.1460476 83.9352919,19.5524286 83.9352919,19.975 L83.9352919,19.975 L83.9103732,84.881 C83.911177,87.3014762 81.9562679,89.25 79.5520191,89.25 L79.5520191,89.25 L71.2917081,89.25 L71.2894737,97.615619 C71.2886935,99.964119 69.4455505,101.884035 67.1395786,101.99494 L66.9287081,102 L4.42547368,102 C2.02122488,102 0.064708134,100.033667 0.064708134,97.6131905 L0.064708134,97.6131905 L0.0896267943,17.1279048 C0.0896267943,14.7074286 2.04453589,12.75 4.44958852,12.75 L4.44958852,12.75 L12.7217081,12.75 L12.7225837,4.40785714 C12.7225837,2.05778571 14.5543452,0.117233193 16.8603833,0.00511597874 L17.0712919,0 Z M49.9127081,15.937 L4.44958852,15.9379048 C3.79044976,15.9379048 3.25510048,16.4681429 3.25510048,17.1311429 L3.25510048,17.1311429 L3.23018182,97.6196667 C3.23018182,98.2826667 3.76633493,98.8137143 4.42547368,98.8137143 L4.42547368,98.8137143 L66.9287081,98.8137143 C67.5870431,98.8137143 68.1231962,98.2778095 68.1231962,97.6148095 L68.1231962,97.6148095 L68.1257081,87.738 L68.1231962,87.6560476 C68.1231962,87.6280645 68.1239123,87.6002491 68.1253272,87.5726192 L68.1457033,33.3580476 L53.0787081,18.158 L53.078756,28.0289524 C53.078756,29.6596514 54.3860229,30.980977 55.9850304,31.0732774 L56.1638469,31.0784286 L62.5888421,31.0784286 C63.4626029,31.0784286 64.1715789,31.791619 64.1715789,32.672381 C64.1715789,33.5531429 63.461799,34.2655238 62.5880383,34.2655238 L62.5880383,34.2655238 L56.1630431,34.2655238 C52.737933,34.2655238 49.9132823,31.4783333 49.9132823,28.0289524 L49.9132823,28.0289524 L49.9127081,15.937 Z M62.5727081,3.187 L17.0720957,3.18790476 C16.4137608,3.18790476 15.8880574,3.74485714 15.8880574,4.40785714 L15.8880574,4.40785714 L15.8877081,12.75 L51.2480759,12.7492293 C51.2823686,12.7437899 51.3170263,12.7394606 51.3520114,12.736279 L51.4960191,12.7297619 C51.7106068,12.7297619 51.9152554,12.7727779 52.1019042,12.8507277 C52.3076683,12.927568 52.497168,13.0474813 52.6567464,13.2081905 L52.6567464,13.2081905 L70.8513876,31.5698095 C71.1471962,31.8685238 71.3127847,32.2700476 71.3127847,32.692619 L71.3127847,32.692619 L71.2927081,86.062 L79.5520191,86.0620952 C80.1692081,86.0620952 80.6783043,85.6067381 80.7395304,85.0041903 L80.7457033,84.8818095 L80.7698182,20.6153333 L65.7387081,5.445 L65.7390431,15.3161905 C65.7390431,16.9468895 67.0119279,18.2328366 68.6084795,18.32261 L68.7871579,18.327619 L75.2121531,18.327619 C76.0859139,18.327619 76.79489,19.0408095 76.79489,19.9215714 C76.79489,20.8023333 76.08511,21.5155238 75.2113493,21.5155238 L75.2113493,21.5155238 L68.7863541,21.5155238 C65.3620478,21.5155238 62.5735694,18.7655714 62.5735694,15.3161905 L62.5735694,15.3161905 L62.5727081,3.187 Z" id="Combined-Shape" fill="#CACACA"></path>
                            <path d="M12.6076364,39.0465714 L8.75569378,39.0465714 C7.88193301,39.0465714 7.17295694,39.7597619 7.17295694,40.6405238 C7.17295694,41.5212857 7.88193301,42.2344762 8.75569378,42.2344762 L12.6076364,42.2344762 C13.4805933,42.2344762 14.1903732,41.5212857 14.1903732,40.6405238 C14.1903732,39.7597619 13.4805933,39.0465714 12.6076364,39.0465714 Z" id="Path" fill="#CACACA"></path>
                            <path d="M62.5639234,39.0465714 L19.716689,39.0465714 C18.8413206,39.0465714 18.1339522,39.7597619 18.1339522,40.6405238 C18.1339522,41.5212857 18.8421244,42.2344762 19.716689,42.2344762 L62.5639234,42.2344762 C63.438488,42.2344762 64.1466603,41.5212857 64.1466603,40.6405238 C64.1466603,39.7597619 63.438488,39.0465714 62.5639234,39.0465714 Z" id="Path" fill="#CACACA"></path>
                            <path d="M62.5639234,47.0155238 L50.558756,47.0155238 C49.6841914,47.0155238 48.9760191,47.7287143 48.9760191,48.6094762 C48.9760191,49.4902381 49.6841914,50.2034286 50.558756,50.2034286 L62.5639234,50.2034286 C63.438488,50.2034286 64.1466603,49.4902381 64.1466603,48.6094762 C64.1466603,47.7287143 63.438488,47.0155238 62.5639234,47.0155238 Z" id="Path" fill="#CACACA"></path>
                            <path d="M43.4505072,47.0155238 L8.75649761,47.0155238 C7.88273684,47.0155238 7.17376077,47.7287143 7.17376077,48.6094762 C7.17376077,49.4902381 7.88273684,50.2034286 8.75649761,50.2034286 L43.4505072,50.2034286 C44.3234641,50.2034286 45.033244,49.4902381 45.033244,48.6094762 C45.033244,47.7287143 44.3234641,47.0155238 43.4505072,47.0155238 Z" id="Path" fill="#CACACA"></path>
                            <path d="M62.5639234,54.9836667 L8.75649761,54.9836667 C7.88273684,54.9836667 7.17376077,55.6976667 7.17376077,56.577619 C7.17376077,57.4575714 7.88273684,58.1715714 8.75649761,58.1715714 L62.5639234,58.1715714 C63.438488,58.1715714 64.1466603,57.4575714 64.1466603,56.577619 C64.1466603,55.6976667 63.438488,54.9836667 62.5639234,54.9836667 Z" id="Path" fill="#CACACA"></path>
                            <path d="M12.6076364,62.952619 L8.75569378,62.952619 C7.88193301,62.952619 7.17295694,63.666619 7.17295694,64.5465714 C7.17295694,65.4265238 7.88193301,66.1405238 8.75569378,66.1405238 L12.6076364,66.1405238 C13.4805933,66.1405238 14.1903732,65.4265238 14.1903732,64.5465714 C14.1903732,63.666619 13.4805933,62.952619 12.6076364,62.952619 Z" id="Path" fill="#CACACA"></path>
                            <path d="M62.5639234,62.952619 L19.716689,62.952619 C18.8413206,62.952619 18.1339522,63.666619 18.1339522,64.5465714 C18.1339522,65.4265238 18.8421244,66.1405238 19.716689,66.1405238 L62.5639234,66.1405238 C63.438488,66.1405238 64.1466603,65.4265238 64.1466603,64.5465714 C64.1466603,63.666619 63.438488,62.952619 62.5639234,62.952619 Z" id="Path" fill="#CACACA"></path>
                            <path d="M75.1880383,26.2965714 L65.795311,26.2965714 C64.9207464,26.2965714 64.2125742,27.0097619 64.2125742,27.8905238 C64.2125742,28.7712857 64.9207464,29.4844762 65.795311,29.4844762 L75.1872344,29.4844762 C76.061799,29.4844762 76.7707751,28.7712857 76.7707751,27.8905238 C76.7707751,27.0097619 76.0626029,26.2965714 75.1880383,26.2965714 Z" id="Path" fill="#CACACA"></path>
                            <path d="M75.1872344,34.2655238 L69.705933,34.2655238 C68.8313684,34.2655238 68.1231962,34.9787143 68.1231962,35.8594762 C68.1231962,36.7402381 68.8313684,37.4534286 69.705933,37.4534286 L75.1872344,37.4534286 C76.061799,37.4534286 76.7699713,36.7402381 76.7699713,35.8594762 C76.7699713,34.9787143 76.061799,34.2655238 75.1872344,34.2655238 Z" id="Path" fill="#CACACA"></path>
                            <path d="M75.1872344,42.2336667 L69.705933,42.2336667 C68.8313684,42.2336667 68.1231962,42.9468571 68.1231962,43.827619 C68.1231962,44.708381 68.8313684,45.4215714 69.705933,45.4215714 L75.1872344,45.4215714 C76.061799,45.4215714 76.7699713,44.708381 76.7699713,43.827619 C76.7699713,42.9468571 76.061799,42.2336667 75.1872344,42.2336667 Z" id="Path" fill="#CACACA"></path>
                            <path d="M75.1872344,66.1405238 L70.1906411,66.1405238 C69.3176842,66.1405238 68.6079043,66.8545238 68.6079043,67.7344762 C68.6079043,68.6144286 69.3176842,69.3284286 70.1906411,69.3284286 L75.1872344,69.3284286 C76.061799,69.3284286 76.7699713,68.6144286 76.7699713,67.7344762 C76.7699713,66.8545238 76.061799,66.1405238 75.1872344,66.1405238 Z" id="Path" fill="#CACACA"></path>
                            <path d="M75.1872344,50.202619 L69.705933,50.202619 C68.8313684,50.202619 68.1231962,50.916619 68.1231962,51.7965714 C68.1231962,52.6765238 68.8313684,53.3905238 69.705933,53.3905238 L75.1872344,53.3905238 C76.061799,53.3905238 76.7699713,52.6765238 76.7699713,51.7965714 C76.7699713,50.9158095 76.061799,50.202619 75.1872344,50.202619 Z" id="Path" fill="#CACACA"></path>
                            <path d="M75.1872344,58.1715714 L69.705933,58.1715714 C68.8313684,58.1715714 68.1231962,58.8855714 68.1231962,59.7655238 C68.1231962,60.6454762 68.8313684,61.3594762 69.705933,61.3594762 L75.1872344,61.3594762 C76.061799,61.3594762 76.7699713,60.6454762 76.7699713,59.7655238 C76.7699713,58.8855714 76.061799,58.1715714 75.1872344,58.1715714 Z" id="Path" fill="#CACACA"></path>
                            <path d="M75.1872344,74.1086667 L69.705933,74.1086667 C68.8313684,74.1086667 68.1231962,74.8226667 68.1231962,75.702619 C68.1231962,76.5825714 68.8313684,77.2965714 69.705933,77.2965714 L75.1872344,77.2965714 C76.061799,77.2965714 76.7699713,76.5825714 76.7699713,75.702619 C76.7699713,74.8226667 76.061799,74.1086667 75.1872344,74.1086667 Z" id="Path" fill="#CACACA"></path>
                            <path d="M61,72 C62.6568542,72 64,73.3431458 64,75 L64,90 C64,91.6568542 62.6568542,93 61,93 L10,93 C8.34314575,93 7,91.6568542 7,90 L7,75 C7,73.3431458 8.34314575,72 10,72 L61,72 Z M25.992,76.9 L21,76.9 L21,88.1 L23.88,88.1 L23.88,83.924 L25.992,83.924 C27.24,83.924 28.232,83.604 28.968,82.948 C29.704,82.292 30.072,81.444 30.072,80.404 C30.072,79.364 29.704,78.532 28.968,77.876 C28.232,77.22 27.24,76.9 25.992,76.9 Z M35.976,76.9 L31.512,76.9 L31.512,88.1 L35.976,88.1 C37.8,88.1 39.288,87.588 40.44,86.548 C41.592,85.508 42.168,84.148 42.168,82.5 C42.168,80.852 41.592,79.508 40.44,78.468 C39.288,77.428 37.8,76.9 35.976,76.9 Z M52.472,76.9 L43.96,76.9 L43.96,88.1 L46.84,88.1 L46.84,83.492 L51.048,83.492 L51.048,81.06 L46.84,81.06 L46.84,79.428 L52.472,79.428 L52.472,76.9 Z M35.768,79.428 C37.944,79.428 39.192,80.532 39.192,82.5 C39.192,84.468 37.944,85.572 35.768,85.572 L34.392,85.572 L34.392,79.428 L35.768,79.428 Z M25.784,79.332 C26.632,79.332 27.16,79.732 27.16,80.436 C27.16,81.14 26.616,81.556 25.784,81.556 L23.88,81.556 L23.88,79.332 L25.784,79.332 Z" id="Combined-Shape" fill="#D8232A"></path>
                        </g>
                    </g>
                </g>
            </g>
        </g>
    </g>
</svg>